<svg width="300" height="150" viewBox="0 0 300 150" xmlns="http://www.w3.org/2000/svg">
  <style>
    .whale-body {
      animation: swim 3.5s ease-in-out infinite;
      transform-origin: 50% 50%;
    }
    .tail-fin {
      animation: flap 1.75s ease-in-out infinite;
      transform-origin: 240px 75px; /* Pivot point at the base of the tail */
    }

    @keyframes swim {
      0% { transform: translateY(-3px) rotate(-1deg); }
      50% { transform: translateY(3px) rotate(1deg); }
      100% { transform: translateY(-3px) rotate(-1deg); }
    }

    @keyframes flap {
      0% { transform: rotate(-8deg); }
      50% { transform: rotate(8deg); }
      100% { transform: rotate(-8deg); }
    }
  </style>

  <g class="whale-body">
    <!-- Main Body Shape -->
    <path fill="#212121" d="M30,75 C40,40 150,40 240,70 C250,75 245,80 240,80 C150,110 40,110 30,75 Z"/>
    
    <!-- White Eye Patch -->
    <path fill="#FFFFFF" d="M70,70 C75,65 85,65 85,72 C85,78 75,78 70,70 Z"/>
    
    <!-- White Underbelly/Chin -->
    <path fill="#FFFFFF" d="M30,75 C50,105 100,100 150,88 C100,95 50,95 35,78 Z"/>
    
    <!-- Dorsal Fin -->
    <path fill="#212121" d="M140,43 C150,25 170,30 165,48 C160,55 150,55 140,43 Z"/>
    
    <!-- Tail Fin (Fluke) - Now with a better shape -->
    <g class="tail-fin">
      <path fill="#212121" d="M240,75 C270,60 290,65 280,80 C270,95 250,85 240,75 Z"/>
    </g>
  </g>
</svg>
